
<svg width="46px" height="46px" viewBox="0 0 46 46" version="1.1" xmlns="http://www.w3.org/2000/svg" xmlns:xlink="http://www.w3.org/1999/xlink">
    <!-- Generator: Sketch 49.3 (51167) - http://www.bohemiancoding.com/sketch -->
    <desc>Created with Sketch.</desc>
    <defs>
        <filter x="-1.9%" y="-70.3%" width="103.8%" height="240.6%" filterUnits="objectBoundingBox" id="filter-1">
            <feOffset dx="0" dy="0" in="SourceAlpha" result="shadowOffsetOuter1"></feOffset>
            <feGaussianBlur stdDeviation="7.5" in="shadowOffsetOuter1" result="shadowBlurOuter1"></feGaussianBlur>
            <feColorMatrix values="0 0 0 0 0   0 0 0 0 0   0 0 0 0 0  0 0 0 0.262199955 0" type="matrix" in="shadowBlurOuter1" result="shadowMatrixOuter1"></feColorMatrix>
            <feMerge>
                <feMergeNode in="shadowMatrixOuter1"></feMergeNode>
                <feMergeNode in="SourceGraphic"></feMergeNode>
            </feMerge>
        </filter>
    </defs>
    <g id="Page-1" stroke="none" stroke-width="1" fill="none" fill-rule="evenodd">
        <g id="Notes-Page" transform="translate(-622.000000, -37.000000)" fill="#B3B3B3" fill-rule="nonzero">
            <g id="Text-Settings" filter="url(#filter-1)" transform="translate(0.000000, 44.000000)">
                <g id="align-justify" transform="translate(637.000000, 8.000000)">
                    <path d="M0,1.96491228 L0,0.561403509 C0,0.251333333 0.255821429,0 0.571428571,0 L15.4285714,0 C15.7441786,0 16,0.251333333 16,0.561403509 L16,1.96491228 C16,2.27498246 15.7441786,2.52631579 15.4285714,2.52631579 L0.571428571,2.52631579 C0.255821429,2.52631579 0,2.27498246 0,1.96491228 Z M0.571428571,7.01754386 L15.4285714,7.01754386 C15.7441786,7.01754386 16,6.76621053 16,6.45614035 L16,5.05263158 C16,4.7425614 15.7441786,4.49122807 15.4285714,4.49122807 L0.571428571,4.49122807 C0.255821429,4.49122807 0,4.7425614 0,5.05263158 L0,6.45614035 C0,6.76621053 0.255821429,7.01754386 0.571428571,7.01754386 Z M0.571428571,16 L15.4285714,16 C15.7441786,16 16,15.7486667 16,15.4385965 L16,14.0350877 C16,13.7250175 15.7441786,13.4736842 15.4285714,13.4736842 L0.571428571,13.4736842 C0.255821429,13.4736842 0,13.7250175 0,14.0350877 L0,15.4385965 C0,15.7486667 0.255821429,16 0.571428571,16 Z M0.571428571,11.5087719 L15.4285714,11.5087719 C15.7441786,11.5087719 16,11.2574386 16,10.9473684 L16,9.54385965 C16,9.23378947 15.7441786,8.98245614 15.4285714,8.98245614 L0.571428571,8.98245614 C0.255821429,8.98245614 0,9.23378947 0,9.54385965 L0,10.9473684 C0,11.2574386 0.255821429,11.5087719 0.571428571,11.5087719 Z" id="Shape"></path>
                </g>
            </g>
        </g>
    </g>
</svg>