
<svg width="44px" height="46px" viewBox="0 0 44 46" version="1.1" xmlns="http://www.w3.org/2000/svg" xmlns:xlink="http://www.w3.org/1999/xlink">
    <!-- Generator: Sketch 49.3 (51167) - http://www.bohemiancoding.com/sketch -->
    <desc>Created with Sketch.</desc>
    <defs>
        <filter x="-1.9%" y="-70.3%" width="103.8%" height="240.6%" filterUnits="objectBoundingBox" id="filter-1">
            <feOffset dx="0" dy="0" in="SourceAlpha" result="shadowOffsetOuter1"></feOffset>
            <feGaussianBlur stdDeviation="7.5" in="shadowOffsetOuter1" result="shadowBlurOuter1"></feGaussianBlur>
            <feColorMatrix values="0 0 0 0 0   0 0 0 0 0   0 0 0 0 0  0 0 0 0.262199955 0" type="matrix" in="shadowBlurOuter1" result="shadowMatrixOuter1"></feColorMatrix>
            <feMerge>
                <feMergeNode in="shadowMatrixOuter1"></feMergeNode>
                <feMergeNode in="SourceGraphic"></feMergeNode>
            </feMerge>
        </filter>
    </defs>
    <g id="Page-1" stroke="none" stroke-width="1" fill="none" fill-rule="evenodd">
        <g id="Notes-Page" transform="translate(-336.000000, -37.000000)" fill="#B3B3B3" fill-rule="nonzero">
            <g id="Text-Settings" filter="url(#filter-1)" transform="translate(0.000000, 44.000000)">
                <g id="bold" transform="translate(350.000000, 8.000000)">
                    <path d="M12.9040435,7.56753571 C14.3666087,6.9055 15.2369565,5.63325 15.2369565,4.14992857 C15.2369565,2.42721429 14.0956522,1.02042857 12.2532174,0.42925 C11.179913,0.0717857143 10.1238696,0 8.76786957,0 L0.695652174,0 C0.311434783,0 0,0.255821429 0,0.571428571 L0,1.75175 C0,2.06735714 0.311434783,2.32317857 0.695652174,2.32317857 L2.13534783,2.32317857 L2.13534783,13.69925 L0.695652174,13.69925 C0.311434783,13.69925 0,13.9550714 0,14.2706786 L0,15.4285714 C0,15.7441786 0.311434783,16 0.695652174,16 L9.20391304,16 C10.2562174,16 11.1532174,15.9539643 12.1111304,15.7291429 C14.3269565,15.1854643 16,13.5231071 16,11.3576429 C16,9.4945 14.8446522,8.08321429 12.9040435,7.56753571 Z M5.83552174,2.45746429 L8.76786957,2.45746429 C9.47630435,2.45746429 9.96508696,2.52957143 10.3993913,2.69735714 C11.0875652,3.00017857 11.4822609,3.64385714 11.4822609,4.46328571 C11.4822609,5.71432143 10.5987826,6.4915 9.17665217,6.4915 L5.83552174,6.4915 L5.83552174,2.45746429 Z M10.733,13.3672857 C10.2921304,13.5121429 9.74704348,13.5425357 9.3673913,13.5425357 L5.83552174,13.5425357 L5.83552174,8.92653571 L9.50365217,8.92653571 C11.2273478,8.92653571 12.2452609,9.83296429 12.2452609,11.1785714 C12.2453043,12.19375 11.6513478,13.0529643 10.733,13.3672857 Z" id="Shape"></path>
                </g>
            </g>
        </g>
    </g>
</svg>