
<svg width="42px" height="44px" viewBox="0 0 42 44" version="1.1" xmlns="http://www.w3.org/2000/svg" xmlns:xlink="http://www.w3.org/1999/xlink">
    <!-- Generator: Sketch 49.3 (51167) - http://www.bohemiancoding.com/sketch -->
    <desc>Created with Sketch.</desc>
    <defs>
        <filter x="-1.9%" y="-70.3%" width="103.8%" height="240.6%" filterUnits="objectBoundingBox" id="filter-1">
            <feOffset dx="0" dy="0" in="SourceAlpha" result="shadowOffsetOuter1"></feOffset>
            <feGaussianBlur stdDeviation="7.5" in="shadowOffsetOuter1" result="shadowBlurOuter1"></feGaussianBlur>
            <feColorMatrix values="0 0 0 0 0   0 0 0 0 0   0 0 0 0 0  0 0 0 0.262199955 0" type="matrix" in="shadowBlurOuter1" result="shadowMatrixOuter1"></feColorMatrix>
            <feMerge>
                <feMergeNode in="shadowMatrixOuter1"></feMergeNode>
                <feMergeNode in="SourceGraphic"></feMergeNode>
            </feMerge>
        </filter>
    </defs>
    <g id="Page-1" stroke="none" stroke-width="1" fill="none" fill-rule="evenodd">
        <g id="Notes-Page" transform="translate(-460.000000, -38.000000)" fill="#B3B3B3" fill-rule="nonzero">
            <g id="Text-Settings" filter="url(#filter-1)" transform="translate(0.000000, 44.000000)">
                <g id="strikethrough" transform="translate(473.000000, 8.000000)">
                    <path d="M15.5,9.04946237 L0.5,9.04946237 C0.22384375,9.04946237 0,8.80299355 0,8.49892473 L0,7.39784946 C0,7.09378065 0.22384375,6.84731183 0.5,6.84731183 L15.5,6.84731183 C15.7761562,6.84731183 16,7.09378065 16,7.39784946 L16,8.49892473 C16,8.80299355 15.7761562,9.04946237 15.5,9.04946237 Z M8.7916875,9.6 C9.6435,10.0451441 10.2455625,10.5869419 10.2455625,11.535243 C10.2455625,12.674443 9.34003125,13.3821591 7.88240625,13.3821591 C6.87225,13.3821591 5.48009375,12.9665032 5.48009375,11.8588559 L5.48009375,11.8021505 C5.48009375,11.4980817 5.25621875,11.2516129 4.98009375,11.2516129 L3.5546875,11.2516129 C3.2785625,11.2516129 3.0546875,11.4980817 3.0546875,11.8021505 L3.0546875,12.4629333 C3.0546875,14.7629763 5.48334375,15.9664172 7.88240625,15.9664172 C10.6504687,15.9664172 12.9453125,14.4029591 12.9453125,11.3410753 C12.9453125,10.6592688 12.83225,10.0880172 12.6283437,9.6 L8.7916875,9.6 Z M7.8244375,6.29677419 C6.81125,5.83208602 6.0483125,5.3007828 6.0483125,4.24316559 C6.0483125,3.07602581 7.01396875,2.6119914 8.078375,2.6119914 C9.41109375,2.6119914 10.1084375,3.18293333 10.1084375,3.74695914 L10.1084375,3.81935484 C10.1084375,4.12342366 10.3323125,4.36989247 10.6084375,4.36989247 L12.0338437,4.36989247 C12.3099687,4.36989247 12.5338437,4.12342366 12.5338437,3.81935484 L12.5338437,2.77615484 C12.5338437,0.971836559 10.2924375,0.0277677419 8.078375,0.0277677419 C5.41578125,0.0277677419 3.3681875,1.43755699 3.3681875,4.35107097 C3.3681875,5.13249032 3.51396875,5.76787957 3.76746875,6.29677419 L7.8244375,6.29677419 Z" id="Shape"></path>
                </g>
            </g>
        </g>
    </g>
</svg>